<svg xmlns="http://www.w3.org/2000/svg" viewBox="0 0 32.28 40.75"><defs><style>.cls-1{fill:#767b7c;stroke:#767b7c;stroke-miterlimit:10;stroke-width:0.75px;}</style></defs><title>buisness</title><g id="Layer_2" data-name="Layer 2"><g id="Chatbot"><path class="cls-1" d="M26.5,1A5.41,5.41,0,0,0,21.1,6.4c0,2.48,1.53,3.62,1.53,4.13,0,1.66.49,2.74,1.55,3.35l.13.52H21L19.12,12A5,5,0,0,0,14.89,9.7h-.74a5,5,0,1,0-5.05,0H8.36A5,5,0,0,0,4.13,12L.76,16.24a2.24,2.24,0,0,0-.22,2.1v0l3.33,6.45a2.23,2.23,0,0,0,2.79,1.28V37.75a2.64,2.64,0,0,0,5,1.26,2.65,2.65,0,0,0,5-1.26V16.23l1.55,1.89a2.21,2.21,0,0,0,1.77.92h7.15a2.34,2.34,0,0,0,2.32-2.29,2.41,2.41,0,0,0-.8-1.78l.24-1.09c1.08-.62,1.55-1.62,1.55-3.31,0-.54,1.54-1.56,1.54-4.17A5.41,5.41,0,0,0,26.5,1ZM7.6,5.38a4,4,0,1,1,4,4A4,4,0,0,1,7.6,5.38Zm3.15,5.31H12.5l-.88,1.22Zm2,10.58L11.62,22.6l-1.14-1.33,1.14-8Zm-6.11-1L5.39,17.77l1.27-1.55ZM15.6,37.75a1.66,1.66,0,0,1-3.32,0V26.13H11V37.75a1.66,1.66,0,0,1-3.31,0V24.17h8ZM27.06,18.06H19.91a1.24,1.24,0,0,1-1-.54l-3.32-4V23.56h-8V13.47L4.22,17.65,6.66,22.5V25a1.28,1.28,0,0,1-1.89-.6L1.45,18a1.29,1.29,0,0,1,.12-1.16l3.35-4.18a4.06,4.06,0,0,1,3.44-1.93H10l1.14,1.6L9.84,21.45l1.78,2.08,1.78-2.08-1.31-9.16,1.15-1.6h1.65a4.06,4.06,0,0,1,3.44,1.93l2.22,2.77h6.52a1.33,1.33,0,0,1,1.32,1.35A1.35,1.35,0,0,1,27.06,18.06ZM28,13.2l-.14.62H25.18L25,13.2a2.27,2.27,0,0,1-1.38-2.48h5.69A2.18,2.18,0,0,1,28,13.2Zm1.53-3.08H26.88v-2l1.74-1.74-.53-.54L26.5,7.38,24.92,5.79l-.54.54,1.74,1.74v2H23.51C23.1,9,22.09,8.41,22.09,6.4a4.42,4.42,0,1,1,8.83,0C30.92,8.41,29.91,9,29.5,10.12Z"/></g></g></svg>