<svg xmlns="http://www.w3.org/2000/svg" viewBox="0 0 37.13 36.38"><defs><style>.cls-1{fill:#fff;}</style></defs><title>home_rlover</title><g id="Layer_2" data-name="Layer 2"><g id="Chatbot"><path class="cls-1" d="M36.77,15.13,19.27.25a1,1,0,0,0-1.35,0L.37,15.2a1,1,0,0,0-.12,1.47A1,1,0,0,0,1,17a1.09,1.09,0,0,0,.68-.24l.13-.12V35.34a1,1,0,0,0,1,1H34.17a1,1,0,0,0,1-1V16.55l.21.17a1,1,0,1,0,1.35-1.59ZM22.7,34.23H14.37V22.07H22.7Zm10.43.07H24.79V21a1,1,0,0,0-1-1H13.32a1,1,0,0,0-1,1V34.3H3.94V14.89L18.6,2.41,33.13,14.77Z"/></g></g></svg>