<svg xmlns="http://www.w3.org/2000/svg" viewBox="0 0 42.67 48"><defs><style>.cls-1{fill:#fff;}</style></defs><title>repair_rolover</title><g id="Layer_2" data-name="Layer 2"><g id="Chatbot"><path class="cls-1" d="M16.12,29.19a1.21,1.21,0,0,1-.84-.35L6.52,20.09a1.2,1.2,0,0,1,1.7-1.7h0L17,27.14a1.2,1.2,0,0,1,0,1.7A1.23,1.23,0,0,1,16.12,29.19Z"/><path class="cls-1" d="M36.14,47.85A4.43,4.43,0,0,1,33,46.55L22.74,36.42a1.21,1.21,0,0,1,1.69-1.72h0L34.66,44.82a2.13,2.13,0,0,0,3,0,2.08,2.08,0,0,0,0-2.94l-9.34-9.33a1.2,1.2,0,0,1,1.7-1.7l9.34,9.33a4.49,4.49,0,0,1-3.18,7.67Z"/><path class="cls-1" d="M18.75,22.32a1.17,1.17,0,0,1-.83-.34l-.45-.43L14.9,19l-3.7-3.5a1.2,1.2,0,0,1,1.65-1.75l3.72,3.52,3,3a1.2,1.2,0,0,1-.83,2.07Z"/><path class="cls-1" d="M16.67,13.48a1.2,1.2,0,0,1-.85-.36l-1.76-1.76a1.2,1.2,0,0,1,1.7-1.7l.92.91,1.8-1.8L12.61,2.89,10.8,4.7l2.83,2.94a1.21,1.21,0,0,1,0,1.71,1.2,1.2,0,0,1-1.7,0L8.25,5.51a1.2,1.2,0,0,1,0-1.68L11.74.34a1.24,1.24,0,0,1,1.7,0L21,7.92a1.2,1.2,0,0,1,0,1.7h0L17.53,13.1A1.2,1.2,0,0,1,16.67,13.48Z"/><path class="cls-1" d="M3,15.56a1.2,1.2,0,0,1-1.21-1.19,1.18,1.18,0,0,1,.34-.84L9.47,5.85a1.2,1.2,0,1,1,1.8,1.58.27.27,0,0,1-.07.08L3.82,15.19A1.19,1.19,0,0,1,3,15.56Z"/><path class="cls-1" d="M12,15.79a1.2,1.2,0,0,1-1-1.89l2.89-4.09a1.21,1.21,0,1,1,2,1.38h0L13,15.28A1.19,1.19,0,0,1,12,15.79Z"/><path class="cls-1" d="M4.12,26a1.16,1.16,0,0,1-.83-.35c-6.62-6.61-1.21-12.1-1.17-12.16A1.2,1.2,0,0,1,3.83,15.2C3.44,15.61.22,19.2,5,24a1.2,1.2,0,0,1,0,1.7,1.19,1.19,0,0,1-.84.35Z"/><path class="cls-1" d="M10.31,48a8.66,8.66,0,0,1-2.85-.48l-1.17-.37a1.19,1.19,0,0,1-.74-1.53,1.21,1.21,0,0,1,.28-.46l5.38-5.37L9.41,38,4,43.36a1.21,1.21,0,0,1-1.7-.06,1.33,1.33,0,0,1-.25-.41l-.41-1.15a8.83,8.83,0,0,1,1.09-7.88l.6-.9a9,9,0,0,1,2.93-2.65l.12-.06a8.8,8.8,0,0,1,5.41-1.05l1.62.21L24.07,18.78l-.21-1.66a8.91,8.91,0,0,1,3.67-8.34l1-.67A8.81,8.81,0,0,1,36.44,7l1.15.39a1.21,1.21,0,0,1,.75,1.53,1.24,1.24,0,0,1-.29.46l-5.38,5.38,1.81,1.8,5.37-5.37a1.21,1.21,0,0,1,2,.45l.36,1.06a9.05,9.05,0,0,1-1.15,8.07l-.52.75A9,9,0,0,1,32,25.33l-1.54-.2-6.79,6.8-3.39,3.24-.43.51L20,37.4a8.83,8.83,0,0,1-3.67,8.34l-1,.7A8.82,8.82,0,0,1,10.31,48ZM8.94,45.44a6.39,6.39,0,0,0,5-1l1-.7a6.38,6.38,0,0,0,2.66-6l-.29-2.25a1.22,1.22,0,0,1,.27-.94l.81-1,.09-.11,3.41-3.24L29.14,23a1.23,1.23,0,0,1,1-.35l2.12.27a6.62,6.62,0,0,0,6.29-2.79l.52-.75a6.63,6.63,0,0,0,1-5.12l-4.81,4.81a1.2,1.2,0,0,1-1.7,0h0l-3.49-3.49a1.2,1.2,0,0,1,0-1.7h0l4.81-4.81a6.41,6.41,0,0,0-5,1l-1,.7A6.48,6.48,0,0,0,27,12.94a6.27,6.27,0,0,0-.73,3.87l.29,2.25a1.19,1.19,0,0,1-.34,1L14.76,31.52a1.19,1.19,0,0,1-1,.34l-2.21-.28a6.41,6.41,0,0,0-3.93.76l-.12.07a6.4,6.4,0,0,0-2.12,1.92l-.6.9a6.37,6.37,0,0,0-1,5l4.81-4.81a1.2,1.2,0,0,1,1.7,0h0l3.49,3.49a1.2,1.2,0,0,1,0,1.7h0Z"/></g></g></svg>