<svg xmlns="http://www.w3.org/2000/svg" viewBox="0 0 38.11 30"><defs><style>.cls-1{fill:#66dfff;}.cls-2{fill:#e8f4f9;}.cls-3{fill:#c9f3ff;}.cls-4{fill:#02739b;}</style></defs><title>auto</title><g id="Layer_2" data-name="Layer 2"><g id="Layer_1-2" data-name="Layer 1"><path class="cls-1" d="M7.15,29.26h0a2.39,2.39,0,0,1-2.39-2.39V24.49H9.53v2.38A2.39,2.39,0,0,1,7.15,29.26Z"/><path class="cls-1" d="M31,29.26h0a2.38,2.38,0,0,1-2.38-2.39V24.49h4.76v2.38A2.39,2.39,0,0,1,31,29.26Z"/><path class="cls-2" d="M33.35,13H4.76a4,4,0,0,0-4,4v7.52H37.37V17a4,4,0,0,0-4-4Z"/><path class="cls-2" d="M33.35,13,31.15,4A4.29,4.29,0,0,0,27,.74H11.13A4.29,4.29,0,0,0,7,4L4.76,13Z"/><path class="cls-3" d="M30.23,12.74l-2-8a1.3,1.3,0,0,0-1.27-1H11.13a1.32,1.32,0,0,0-1.28,1l-2,8.07Z"/><rect class="cls-1" x="13.1" y="16.58" width="11.91" height="3.57"/><circle class="cls-3" cx="6.85" cy="18.72" r="2.08"/><circle class="cls-3" cx="31.27" cy="18.72" r="2.08"/><path class="cls-4" d="M36.59,13.49a.76.76,0,0,0,.23-.54V10.5a2.35,2.35,0,0,0-2.35-2.34H32.94L31.88,3.83A5,5,0,0,0,27,0H11.13A5,5,0,0,0,6.24,3.83L5.18,8.16H3.64A2.34,2.34,0,0,0,1.3,10.5V13a.76.76,0,0,0,.22.54A4.76,4.76,0,0,0,0,17v7.52a.75.75,0,0,0,.74.75H4v1.63a3.13,3.13,0,1,0,6.25,0V25.24h8v2.13a.75.75,0,0,0,.75.74.74.74,0,0,0,.74-.74V25.24h8v1.63a3.13,3.13,0,1,0,6.25,0V25.24h3.28a.75.75,0,0,0,.74-.75V17A4.73,4.73,0,0,0,36.59,13.49ZM34.47,9.65a.86.86,0,0,1,.86.85v1.71h-1.4L33.3,9.65ZM7.68,4.19a3.54,3.54,0,0,1,3.45-2.7H27a3.54,3.54,0,0,1,3.44,2.7l2,8H30.87L29,4.54A2,2,0,0,0,27,3H11.13a2.05,2.05,0,0,0-2,1.56L7.25,12.21H5.71Zm9.46,3.54a.74.74,0,0,0-1.05,0l-4.43,4.43,0,.05H8.78L10.57,4.9a.57.57,0,0,1,.56-.43H23.79L19.25,9a.75.75,0,0,0,0,1.06.77.77,0,0,0,.53.21.73.73,0,0,0,.52-.21l5.59-5.59H27a.56.56,0,0,1,.55.43l1.79,7.31H13.72l3.42-3.43A.74.74,0,0,0,17.14,7.73ZM2.79,10.5a.85.85,0,0,1,.85-.85H4.81l-.63,2.56H2.79Zm6,16.37a1.64,1.64,0,1,1-3.27,0V25.24H8.78Zm23.83,0a1.64,1.64,0,1,1-3.28,0V25.24h3.28Zm4-3.12H1.49V17A3.28,3.28,0,0,1,4.76,13.7H33.35A3.28,3.28,0,0,1,36.63,17v6.78Z"/><path class="cls-4" d="M25,15.83H13.1a.75.75,0,0,0-.74.75v3.57a.74.74,0,0,0,.74.74H25a.75.75,0,0,0,.75-.74V16.58A.76.76,0,0,0,25,15.83Zm-.74,3.58H13.85V17.32H24.27Z"/><path class="cls-4" d="M18.46,7.16a.75.75,0,0,0,.75-.75A.73.73,0,0,0,19,5.89a.75.75,0,0,0-1.06,0,.76.76,0,0,0-.21.52.78.78,0,0,0,.21.53A.75.75,0,0,0,18.46,7.16Z"/><path class="cls-4" d="M6.85,15.89a2.83,2.83,0,1,0,2.83,2.83A2.83,2.83,0,0,0,6.85,15.89Zm0,4.17a1.34,1.34,0,1,1,1.34-1.34A1.34,1.34,0,0,1,6.85,20.06Z"/><path class="cls-4" d="M31.27,15.89a2.83,2.83,0,1,0,2.82,2.83A2.83,2.83,0,0,0,31.27,15.89Zm0,4.17a1.34,1.34,0,1,1,1.34-1.34A1.34,1.34,0,0,1,31.27,20.06Z"/></g></g></svg>