<svg xmlns="http://www.w3.org/2000/svg" viewBox="0 0 36 36"><defs><style>.cls-1{fill:#66dfff;}.cls-2{fill:#e8f4f9;}.cls-3{fill:#02739b;}</style></defs><title>home</title><g id="Layer_2" data-name="Layer 2"><g id="Layer_1-2" data-name="Layer 1"><polygon class="cls-1" points="5.47 18 18 5.47 30.53 18 35.3 18 18 0.7 0.7 18 5.47 18"/><polygon class="cls-2" points="4.5 18.06 4.5 35.3 31.5 35.3 31.5 18.06 18 5.47 4.5 18.06"/><rect class="cls-1" x="14.34" y="21.23" width="7.31" height="14.06"/><rect class="cls-1" x="24.61" y="21.23" width="3.94" height="7.03"/><rect class="cls-1" x="7.45" y="21.23" width="3.94" height="7.03"/><circle class="cls-1" cx="18" cy="14.79" r="2.53"/><path class="cls-3" d="M35.3,34.59H32.2V29a.7.7,0,1,0-1.4,0v5.55H22.36V21.23a.71.71,0,0,0-.7-.7H14.34a.71.71,0,0,0-.7.7V34.59H5.2V18.7h.27a.7.7,0,0,0,.5-.2l12-12,12,12a.7.7,0,0,0,.5.2h.27V24a.7.7,0,0,0,1.4,0V18.7h3.1a.71.71,0,0,0,.65-.43.69.69,0,0,0-.16-.77L18.5.21a.7.7,0,0,0-1,0L10.89,6.82a.71.71,0,0,0,0,1,.72.72,0,0,0,1,0L18,1.7,33.6,17.3H30.82L18.5,5a.7.7,0,0,0-1,0L5.18,17.3H2.4L8,11.75a.72.72,0,0,0,0-1,.71.71,0,0,0-1,0L.21,17.5a.69.69,0,0,0-.16.77.71.71,0,0,0,.65.43H3.8V34.59H.7a.7.7,0,0,0-.7.71.7.7,0,0,0,.7.7H35.3a.7.7,0,0,0,.7-.7A.7.7,0,0,0,35.3,34.59Zm-20.25,0V21.94H21V34.59Z"/><path class="cls-3" d="M24.61,20.53a.7.7,0,0,0-.7.7v7a.7.7,0,0,0,.7.7h3.94a.7.7,0,0,0,.7-.7v-7a.7.7,0,0,0-.7-.7Zm3.23,7H25.31V21.94h2.53Z"/><path class="cls-3" d="M7.45,20.53a.7.7,0,0,0-.7.7v7a.7.7,0,0,0,.7.7h3.94a.7.7,0,0,0,.7-.7v-7a.7.7,0,0,0-.7-.7Zm3.24,7H8.16V21.94h2.53Z"/><path class="cls-3" d="M14.77,14.79A3.23,3.23,0,1,0,18,11.55,3.23,3.23,0,0,0,14.77,14.79Zm5.06,0A1.83,1.83,0,1,1,18,13,1.83,1.83,0,0,1,19.83,14.79Z"/><path class="cls-3" d="M16.66,27.56a.72.72,0,1,0,.5.21A.71.71,0,0,0,16.66,27.56Z"/><path class="cls-3" d="M9.35,10.05a.68.68,0,0,0,.7-.7.74.74,0,0,0-.2-.5.7.7,0,0,0-.5-.2.68.68,0,0,0-.7.7.7.7,0,0,0,.2.5A.74.74,0,0,0,9.35,10.05Z"/><path class="cls-3" d="M31.5,25.62a.7.7,0,1,0,0,1.4.68.68,0,0,0,.7-.7.68.68,0,0,0-.7-.7Z"/></g></g></svg>