<svg xmlns="http://www.w3.org/2000/svg" viewBox="0 0 36.16 36.25"><defs><style>.cls-1{fill:#fff;stroke:#767b7c;stroke-miterlimit:10;stroke-width:0.75px;opacity:0.5;}.cls-2{fill:#767b7c;}</style></defs><title>macy</title><g id="Layer_2" data-name="Layer 2"><g id="Layer_1-2" data-name="Layer 1"><ellipse class="cls-1" cx="18.08" cy="18.13" rx="17.71" ry="17.75"/><path class="cls-2" d="M25.31,23.9l-4-1.67a12.68,12.68,0,0,0,3.08-.95,1.11,1.11,0,0,0,.66-1c0-5.51-.8-12.83-7-12.83s-6.92,7.32-7,12.83a1.15,1.15,0,0,0,.66,1,12.82,12.82,0,0,0,3.08.95l-4,1.67a1.85,1.85,0,0,0-1.13,1.7v1.87a1.38,1.38,0,0,0,1.37,1.37h14a1.37,1.37,0,0,0,1.37-1.37V25.6A1.83,1.83,0,0,0,25.31,23.9Zm-1.14-3.65a.26.26,0,0,1-.16.24,12.53,12.53,0,0,1-3.16.93v-.6l.78-.43a2.32,2.32,0,0,0,1.17-1.81v0h.41a1.37,1.37,0,0,0,.9-.34C24.14,18.86,24.16,19.54,24.17,20.25ZM18.08,20a7.91,7.91,0,0,0,3.56-.72,1.24,1.24,0,0,1-.44.38L18.77,21a1.41,1.41,0,0,1-1.38,0L15,19.62a1.46,1.46,0,0,1-.73-1.12l-.33-3.72a24.16,24.16,0,0,0,6.78-1.65,3.5,3.5,0,0,0,1.6,1.54L22,18a5.75,5.75,0,0,1-3.9,1.11.44.44,0,1,0,0,.87Zm4.8-2.27.18-1.93h.15a.49.49,0,0,1,.49.5v.93a.5.5,0,0,1-.49.5Zm-9.62-6c1-2.33,2.56-3.45,4.82-3.45s3.84,1.12,4.82,3.45A14,14,0,0,1,23.79,15a1.41,1.41,0,0,0-.58-.13h-.07l0-.45a.47.47,0,0,0-.3-.46,2.79,2.79,0,0,1-1.59-1.59.41.41,0,0,0-.26-.27.46.46,0,0,0-.38,0C18.44,13.48,13.43,14,13.38,14a.43.43,0,0,0-.39.48l0,.45H13a1.45,1.45,0,0,0-.59.13A14.49,14.49,0,0,1,13.26,11.74Zm0,6H13a.5.5,0,0,1-.5-.5v-.93a.5.5,0,0,1,.5-.5h.15Zm-1.13,2.8a.26.26,0,0,1-.16-.24c0-.71,0-1.39.06-2a1.38,1.38,0,0,0,.91.34h.4v0a2.31,2.31,0,0,0,1.18,1.81l.77.43v.6A12.66,12.66,0,0,1,12.15,20.49ZM15.35,23a1.36,1.36,0,0,0,.84-1.26v-.4l.77.43a2.26,2.26,0,0,0,1.12.29,2.23,2.23,0,0,0,1.12-.29l.77-.43v.4A1.37,1.37,0,0,0,20.82,23l.49.21a7.72,7.72,0,0,1-3.23,2.43,7.69,7.69,0,0,1-3.23-2.43Zm-2.83,5H11.09a.49.49,0,0,1-.49-.49V25.6a1,1,0,0,1,.06-.35l1.5,1.2a1,1,0,0,1,.36.76Zm10.25-.75V28H13.39v-.75a1.83,1.83,0,0,0-.69-1.44l-1.39-1.11L14,23.53h0a8.2,8.2,0,0,0,4,2.95h.21a8.2,8.2,0,0,0,4-2.95h0l2.7,1.13-1.39,1.11A1.83,1.83,0,0,0,22.77,27.21Zm2.8.26a.5.5,0,0,1-.5.49H23.64v-.75a1,1,0,0,1,.36-.76l1.5-1.2a1,1,0,0,1,.07.35Z"/></g></g></svg>