<svg xmlns="http://www.w3.org/2000/svg" viewBox="0 0 42.02 42"><defs><style>.cls-1{fill:#66dfff;}.cls-2{fill:#e8f4f9;}.cls-3{fill:#47c0dd;}.cls-4{fill:#f0f0fa;}.cls-5{fill:#02739b;}</style></defs><title>repair</title><g id="Layer_2" data-name="Layer 2"><g id="Layer_1-2" data-name="Layer 1"><polygon class="cls-1" points="32.66 6.57 34.7 2.63 38.85 0.82 41.2 3.17 39.38 7.32 35.43 9.34 32.66 6.57"/><path class="cls-2" d="M32.79,33.67l.9-.9a1.31,1.31,0,0,1,1.85,0l4.62,4.62a7.51,7.51,0,1,0-2.74,2.75l-4.63-4.62A1.31,1.31,0,0,1,32.79,33.67Z"/><path class="cls-2" d="M9.23,8.33l-.9.9a1.31,1.31,0,0,1-1.85,0L1.85,4.61A7.53,7.53,0,1,0,4.6,1.86L9.23,6.49A1.3,1.3,0,0,1,9.23,8.33Z"/><polygon class="cls-2" points="16.12 10.79 31.52 26.18 26.2 31.5 10.81 16.12 16.12 10.79"/><path class="cls-3" d="M23.15,22.83l-4-4-5.62,2.23L2.35,32.29a5.19,5.19,0,0,0,0,7.36h0a5.19,5.19,0,0,0,7.36,0l11.21-11.2Z"/><polygon class="cls-1" points="20.92 28.45 23.14 22.82 19.18 18.86 13.55 21.08 20.92 28.45"/><rect class="cls-4" x="18.5" y="12.43" width="18.21" height="3.91" transform="translate(-2.09 23.74) rotate(-45)"/><path class="cls-5" d="M39.25,27.45a8.32,8.32,0,0,0-7.3-2l-5.74-5.74,3.48-3.48a.82.82,0,0,0-1.16-1.16l-6,6L21,19.45,32.66,7.73l1.61,1.61L32.21,11.4a.82.82,0,0,0,1.16,1.16L35.92,10l3.84-2a.82.82,0,0,0,.38-.4L42,3.49a.83.83,0,0,0-.17-.91L39.43.24a.81.81,0,0,0-.91-.17L34.37,1.88a.82.82,0,0,0-.4.38L32,6.08l-9.71,9.71-5.73-5.74A8.35,8.35,0,0,0,4.19,1.15a.85.85,0,0,0-.41.6A.85.85,0,0,0,4,2.44L8.64,7.07a.48.48,0,0,1,0,.68l-.89.9a.5.5,0,0,1-.35.14.48.48,0,0,1-.34-.14L2.43,4a.82.82,0,0,0-.68-.24.85.85,0,0,0-.61.41A8.36,8.36,0,0,0,8.37,16.72a8.13,8.13,0,0,0,1.77-.19.66.66,0,0,0,.17.24l3.37,3.38-.43.17a.75.75,0,0,0-.28.18L1.77,31.71a6,6,0,1,0,8.52,8.52L21.5,29a.75.75,0,0,0,.18-.28l.17-.43,3.62,3.62a8.58,8.58,0,0,0-.16,1.43,8.33,8.33,0,0,0,12.52,7.48A.82.82,0,0,0,38,39.56l-4.63-4.63a.48.48,0,0,1,0-.68l.9-.9a.48.48,0,0,1,.34-.14.5.5,0,0,1,.35.14L39.58,38a.85.85,0,0,0,.69.24.83.83,0,0,0,.6-.41,8.34,8.34,0,0,0-1.62-10.35Zm-4-24.18L38.67,1.8l1.55,1.55L39.1,5.91,37.53,4.33a.82.82,0,0,0-1.16,1.16L38,7.11l-2.4,1.22L33.67,6.41ZM3.87,13.33A6.73,6.73,0,0,1,2.1,6l3.8,3.8a2.11,2.11,0,0,0,1.5.63,2.13,2.13,0,0,0,1.51-.63l.9-.9a2.1,2.1,0,0,0,.62-1.5A2.14,2.14,0,0,0,9.81,5.9L6,2.1A6.7,6.7,0,1,1,3.87,13.33Zm8,2.64A8.49,8.49,0,0,0,16,11.81L21.12,17,19.78,18.3l0,0a.84.84,0,0,0-.89-.18l-3.53,1.4ZM9.13,39.07a4.38,4.38,0,0,1-6.2-6.2L13.55,22.25l4.64,4.64a.86.86,0,0,0,.59.24.82.82,0,0,0,.58-1.4L15,21.39l4-1.57,3.2,3.2-2,5ZM22.51,26.66l1.4-3.53a.84.84,0,0,0-.18-.89l0,0,1.35-1.34L30.2,26A8.38,8.38,0,0,0,26,30.19ZM39.92,36l-3.8-3.8a2.11,2.11,0,0,0-3,0l-.9.9a2.1,2.1,0,0,0-.62,1.5,2.14,2.14,0,0,0,.62,1.51L36,39.9a6.7,6.7,0,0,1-7.11-1.53,6.7,6.7,0,0,1,.31-9.77,6.67,6.67,0,0,1,8.93.07A6.76,6.76,0,0,1,39.92,36Z"/><path class="cls-5" d="M30.29,13.32a.83.83,0,0,0-.24.58.86.86,0,0,0,.24.58.84.84,0,0,0,.58.24.83.83,0,0,0,.58-.24.86.86,0,0,0,.24-.58.78.78,0,0,0-.24-.58.79.79,0,0,0-.58-.25A.81.81,0,0,0,30.29,13.32Z"/><path class="cls-5" d="M10.6,27.89,4.9,33.58a.82.82,0,0,0,0,1.16.8.8,0,0,0,1.16,0l5.7-5.69a.82.82,0,1,0-1.16-1.16Z"/><path class="cls-5" d="M13.51,25.31a.83.83,0,0,0-.58,1.41.85.85,0,0,0,.58.23.82.82,0,0,0,.58-1.4A.83.83,0,0,0,13.51,25.31Z"/></g></g></svg>