<svg xmlns="http://www.w3.org/2000/svg" viewBox="0 0 35.44 42"><defs><style>.cls-1{fill:#e8f4f9;}.cls-2{fill:#66dfff;}.cls-3{fill:#02739b;}</style></defs><title>self quote</title><g id="Layer_2" data-name="Layer 2"><g id="Layer_1-2" data-name="Layer 1"><path class="cls-1" d="M.82,2.46V39.54a1.63,1.63,0,0,0,1.64,1.64H33a1.64,1.64,0,0,0,1.64-1.64V8.12L27.32.82H2.46A1.63,1.63,0,0,0,.82,2.46Z"/><path class="cls-2" d="M34.62,8.12,27.32.82V6.48A1.63,1.63,0,0,0,29,8.12Z"/><rect class="cls-2" x="21.08" y="13.95" width="9.11" height="15.75"/><rect class="cls-2" x="5.25" y="13.95" width="4.43" height="15.75"/><path class="cls-3" d="M35.2,7.54,27.9.24A.86.86,0,0,0,27.32,0H2.46A2.46,2.46,0,0,0,0,2.46V39.54A2.46,2.46,0,0,0,2.46,42H33a2.46,2.46,0,0,0,2.46-2.46V8.12A.83.83,0,0,0,35.2,7.54ZM28.14,2.8l4.5,4.5H29a.82.82,0,0,1-.82-.82ZM33,40.36H2.46a.82.82,0,0,1-.82-.82V2.46a.82.82,0,0,1,.82-.82h24V6.48A2.46,2.46,0,0,0,29,8.94H33.8v30.6A.82.82,0,0,1,33,40.36Z"/><path class="cls-3" d="M5.25,6.89a.82.82,0,0,0,.82-.82.82.82,0,0,0-.82-.82.82.82,0,0,0-.82.82.82.82,0,0,0,.82.82Z"/><path class="cls-3" d="M8.36,6.89h9.85a.82.82,0,0,0,0-1.64H8.36a.82.82,0,0,0,0,1.64Z"/><path class="cls-3" d="M30.19,13.12H5.25a.83.83,0,0,0-.82.83V29.7a.82.82,0,0,0,.82.82H30.19A.82.82,0,0,0,31,29.7V14A.83.83,0,0,0,30.19,13.12Zm-19,10.5V20h9v3.6Zm9,1.65v3.6h-9v-3.6ZM6.07,20H9.52v3.6H6.07Zm5.09-1.65v-3.6h9v3.6ZM21.82,20h7.55v3.6H21.82Zm7.55-1.65H21.82v-3.6h7.55ZM9.52,14.77v3.6H6.07v-3.6ZM6.07,25.27H9.52v3.6H6.07Zm15.75,3.6v-3.6h7.55v3.6Z"/><path class="cls-3" d="M21,33.47a.82.82,0,0,0-.82.82.84.84,0,0,0,.24.58.82.82,0,0,0,1.16,0,.84.84,0,0,0,.24-.58.82.82,0,0,0-.82-.82Z"/><path class="cls-3" d="M30.19,33.47H24.45a.82.82,0,1,0,0,1.64h5.74a.82.82,0,0,0,0-1.64Z"/></g></g></svg>