<svg xmlns="http://www.w3.org/2000/svg" viewBox="0 0 37.37 36"><defs><style>.cls-1{fill:#e8f4f9;}.cls-2{fill:#66dfff;}.cls-3{fill:#fff;}.cls-4{fill:#02739b;}</style></defs><title>buisness</title><g id="Layer_2" data-name="Layer 2"><g id="Layer_1-2" data-name="Layer 1"><path class="cls-1" d="M23.52,13.37H22.35V9.87h1.17a1.75,1.75,0,0,1,1.75,1.75h0A1.75,1.75,0,0,1,23.52,13.37Z"/><path class="cls-1" d="M9.47,9.87h1.17v3.5H9.47a1.75,1.75,0,0,1-1.75-1.75h0A1.75,1.75,0,0,1,9.47,9.87Z"/><path class="cls-1" d="M26.68.73H14A3.86,3.86,0,0,0,10.17,4.6V8.19h11.3A5.21,5.21,0,0,0,26.68,3Z"/><path class="cls-1" d="M12.12,20.09l-6.94,2A6.15,6.15,0,0,0,.73,28v7.27H32.26V28a6.15,6.15,0,0,0-4.45-5.91l-6.94-2Z"/><polygon class="cls-2" points="18.59 22.97 17.79 25.43 15.2 25.43 14.4 22.97 16.5 21.18 18.59 22.97"/><polygon class="cls-3" points="21.97 24.98 21.97 20.41 20.87 20.09 12.12 20.09 11.02 20.41 11.02 24.98 16.5 21.4 21.97 24.98"/><path class="cls-1" d="M22.35,8.19v5a5.85,5.85,0,0,1-5.85,5.85h0a5.85,5.85,0,0,1-5.86-5.85v-5Z"/><polygon class="cls-2" points="17.61 35.27 18.97 28.3 17.79 25.43 15.2 25.43 14.02 28.3 15.38 35.27 17.61 35.27"/><circle class="cls-2" cx="30.51" cy="26.22" r="6.13"/><path class="cls-4" d="M20.25,1.46a.76.76,0,0,0,.52-.21A.73.73,0,0,0,21,.73a.73.73,0,0,0-.21-.52A.76.76,0,0,0,20.25,0a.74.74,0,0,0-.51.21.74.74,0,0,0-.22.52.74.74,0,0,0,.22.52A.74.74,0,0,0,20.25,1.46Z"/><path class="cls-4" d="M37.37,26.22a6.86,6.86,0,0,0-11.16-5.35l-5.13-1.48a.74.74,0,0,0-.91.5.73.73,0,0,0,.5.9l.57.16v2.68l-4.35-2.84a.71.71,0,0,0-.79,0l-4.35,2.84V21l.57-.16a.73.73,0,1,0-.41-1.4L5,21.39A6.86,6.86,0,0,0,0,28v7.27A.73.73,0,0,0,.73,36H32.26a.73.73,0,0,0,.73-.73V32.62A6.88,6.88,0,0,0,37.37,26.22ZM16.5,22.27l1.27.84-.51,1.59H15.73l-.51-1.59ZM1.46,28a5.45,5.45,0,0,1,3.92-5.21l4.91-1.42V25a.74.74,0,0,0,.38.64.72.72,0,0,0,.75,0L14,23.94l.48,1.46L13.35,28a.75.75,0,0,0,0,.42l1.2,6.1h-13ZM16,34.54l-1.2-6.16.91-2.22H17.3l.91,2.22L17,34.54Zm15.55,0h-13l1.2-6.1a.75.75,0,0,0-.05-.42L18.56,25.4,19,23.94l2.53,1.65a.72.72,0,0,0,.4.12A.73.73,0,0,0,22.7,25v-3.6l2.36.68a6.78,6.78,0,0,0-1.41,4.16,6.87,6.87,0,0,0,6.86,6.86,6.8,6.8,0,0,0,1-.08v1.54Zm-1-2.92a5.4,5.4,0,0,1-3.76-9.27.73.73,0,0,0,.29-.26,5.4,5.4,0,1,1,3.47,9.53Z"/><path class="cls-4" d="M30.51,24.36a.66.66,0,0,1,.72.59.73.73,0,0,0,1.46,0A2.07,2.07,0,0,0,31.24,23a.73.73,0,0,0-1.46,0A2.08,2.08,0,0,0,28.32,25,2.12,2.12,0,0,0,30.51,27a.6.6,0,1,1,0,1.18.67.67,0,0,1-.73-.59.73.73,0,0,0-1.46,0,2.06,2.06,0,0,0,1.46,1.93.73.73,0,0,0,1.46,0,2.07,2.07,0,0,0,1.45-1.93,2.12,2.12,0,0,0-2.18-2.05.68.68,0,0,1-.73-.59A.67.67,0,0,1,30.51,24.36Z"/><path class="cls-4" d="M9.47,14.1H10A6.58,6.58,0,0,0,23,14.1h.5a2.48,2.48,0,1,0,0-5h-.44V8.7A6,6,0,0,0,27.41,3V.73A.73.73,0,0,0,26.68,0H22.92a.73.73,0,0,0-.73.73.73.73,0,0,0,.73.73h3V3a4.49,4.49,0,0,1-4.48,4.48H10.9V4.6A3.14,3.14,0,0,1,14,1.46H17A.73.73,0,0,0,17.7.73.73.73,0,0,0,17,0H14A4.6,4.6,0,0,0,9.44,4.6V8.19a.72.72,0,0,0,.47.68v.27H9.47a2.48,2.48,0,1,0,0,5Zm14.05-3.5a1,1,0,1,1,0,2h-.44v-2Zm-1.9-1.68v4.3a5.13,5.13,0,0,1-10.25,0V8.92H21.62ZM9.47,10.6h.44v2H9.47a1,1,0,0,1,0-2Z"/><path class="cls-4" d="M8.22,30.45H6a.73.73,0,0,0,0,1.46H8.22a.73.73,0,0,0,0-1.46Z"/><path class="cls-4" d="M10.84,30.45a.74.74,0,0,0-.52.22.74.74,0,0,0-.21.51.73.73,0,1,0,1.46,0,.74.74,0,0,0-.21-.51A.74.74,0,0,0,10.84,30.45Z"/></g></g></svg>