<svg xmlns="http://www.w3.org/2000/svg" viewBox="0 0 48 53.4"><defs><style>.cls-1{fill:#767b7c;}</style></defs><title>cash</title><g id="Layer_2" data-name="Layer 2"><g id="Chatbot"><path class="cls-1" d="M45.38,24.34l-.05,0a4.54,4.54,0,0,0-5.14.88l-9.21,9a4.48,4.48,0,0,0-.61-1.09,4.56,4.56,0,0,0-3.63-1.77H9.47a8.75,8.75,0,0,0-5.84,2.24L.47,36.42a1.37,1.37,0,0,0,1.79,2.07l0,0,3.16-2.84a6,6,0,0,1,4-1.54H26.74a1.85,1.85,0,1,1,0,3.69H15a1.37,1.37,0,0,0,0,2.74H26.74a4.6,4.6,0,0,0,3.83-2L42.08,27.13a1.83,1.83,0,0,1,2.07-.35l.08,0a1.8,1.8,0,0,1,.87,2.37,1.82,1.82,0,0,1-.36.51L30.42,44a9.32,9.32,0,0,1-6.6,2.73H13.66A5.66,5.66,0,0,0,9.11,49L7.52,51.22A1.36,1.36,0,1,0,9.7,52.86l1.6-2.19a3,3,0,0,1,2.34-1.19H23.82A12,12,0,0,0,32.35,46L46.68,31.62a4.51,4.51,0,0,0,0-6.38A4.46,4.46,0,0,0,45.38,24.34Z"/><path class="cls-1" d="M23.08,27.37A1.37,1.37,0,0,0,24.45,26v-.95a4.78,4.78,0,0,0,3.82-4.68c0-1.38-.63-3.83-4.86-4.82-2.73-.62-2.73-1.77-2.73-2.15a2.2,2.2,0,0,1,2.43-2.11,2.43,2.43,0,0,1,2.25,1.49A1.37,1.37,0,0,0,28,12.15a1.5,1.5,0,0,0-.18-.43,5.2,5.2,0,0,0-3.39-3v-1a1.37,1.37,0,0,0-2.74,0v1a4.78,4.78,0,0,0-3.79,4.69c0,1.38.63,3.82,4.86,4.81,2.73.63,2.73,1.78,2.73,2.15a2.2,2.2,0,0,1-2.43,2.12A2.45,2.45,0,0,1,20.83,21a1.36,1.36,0,0,0-2.55,1l0,.08a5.16,5.16,0,0,0,3.4,3v1a1.37,1.37,0,0,0,1.36,1.37Z"/><path class="cls-1" d="M5.83,16.56a17.14,17.14,0,0,0,2.41,9.26,13.89,13.89,0,0,0,.88,1.33c.15.21.31.41.47.61l.35.43A1.37,1.37,0,0,0,12,26.41l-.3-.34-.39-.51c-.26-.36-.51-.74-.74-1.09a14.46,14.46,0,1,1,26.79-8.81,15.47,15.47,0,0,1,.06,1.8,11.18,11.18,0,0,1-.09,1.29c0,.32-.09.63-.14.94s-.18.85-.29,1.27a1.36,1.36,0,0,0,2.63.73,15.06,15.06,0,0,0,.35-1.51c.07-.37.13-.75.16-1.1a13,13,0,0,0,.11-1.53,17,17,0,0,0-.07-2.14A17.19,17.19,0,0,0,5.83,16.56Z"/></g></g></svg>