<svg xmlns="http://www.w3.org/2000/svg" viewBox="0 0 24 24"><defs><style>.cls-1{fill:none;}.cls-2{fill:#767b7c;}</style></defs><title>CoverageAsset 5</title><g id="Layer_2" data-name="Layer 2"><g id="Layer_5" data-name="Layer 5"><rect class="cls-1" width="24" height="24"/><path class="cls-2" d="M17.53,16.15h-.84a3.51,3.51,0,0,0-1.35.28,4.47,4.47,0,0,0-2.78-1H11.44a4.36,4.36,0,0,0-2.77,1,3.36,3.36,0,0,0-1.36-.29H6.47a3.44,3.44,0,0,0-3.42,3.42V22H7l0,1H17V22H21V19.57A3.42,3.42,0,0,0,17.53,16.15ZM7,21.33H3.73V19.57a2.76,2.76,0,0,1,2.74-2.76h.84a2.87,2.87,0,0,1,.82.13,4.3,4.3,0,0,0-1.07,2.79Zm9.31,1H7.67l0-2.59a3.68,3.68,0,0,1,.91-2.39l0,0a3.91,3.91,0,0,1,1.65-1.06,3.72,3.72,0,0,1,1.14-.18h1.12a3.79,3.79,0,0,1,3.78,3.79h0Zm3.95-1H17V19.89a4.4,4.4,0,0,0-1.13-2.95,2.56,2.56,0,0,1,.82-.13h.84a2.77,2.77,0,0,1,2.76,2.76Z"/><path class="cls-2" d="M6.93,15.49a2.31,2.31,0,0,0,2.32-2.3,2.53,2.53,0,0,0-.11-.73v0a3,3,0,0,0,5.78-.28l.08.07A2.32,2.32,0,1,0,16.24,11a11.24,11.24,0,0,0,1.84-6.47V4.28l-.29,0a8.41,8.41,0,0,1-3-.84,7.7,7.7,0,0,1-2.67-2.1L11.85,1l-.26.3A8.9,8.9,0,0,1,6,4.22l-.29,0v.29a11.31,11.31,0,0,0,1.71,6.38,2.31,2.31,0,1,0-.49,4.58ZM12,13.94a2.31,2.31,0,1,1,2.31-2.3h0A2.32,2.32,0,0,1,12,14Zm5.11-2.42a1.65,1.65,0,1,1-1.65,1.65h0a1.65,1.65,0,0,1,1.65-1.64ZM6.35,4.85A9.63,9.63,0,0,0,11.82,2a8.72,8.72,0,0,0,2.65,2,9.51,9.51,0,0,0,2.94.88,10.49,10.49,0,0,1-2,6.21c-.14.19-.28.37-.43.55a3,3,0,0,0-5.93,0,1.7,1.7,0,0,0,0,.39,8.69,8.69,0,0,1-.67-.83A10.42,10.42,0,0,1,6.35,4.85Zm.58,6.68a1.65,1.65,0,1,1-1.65,1.65h0A1.65,1.65,0,0,1,6.93,11.53Z"/></g></g></svg>