<svg xmlns="http://www.w3.org/2000/svg" viewBox="0 0 24 24"><defs><style>.cls-1{fill:none;}.cls-2{fill:#767b7c;}</style></defs><title>DiscountAsset 6</title><g id="Layer_2" data-name="Layer 2"><g id="Layer_6" data-name="Layer 6"><rect class="cls-1" width="24" height="24"/><path class="cls-2" d="M21.94,11.79,20.72,9.66V7.21a.41.41,0,0,0-.21-.36L18.38,5.62,17.15,3.49a.41.41,0,0,0-.36-.21H14.34L12.21,2.06a.4.4,0,0,0-.42,0L9.66,3.28H7.21a.41.41,0,0,0-.36.21L5.62,5.62,3.49,6.85a.41.41,0,0,0-.21.36V9.66L2.06,11.79a.4.4,0,0,0,0,.42l1.22,2.13v2.45a.41.41,0,0,0,.21.36l2.13,1.23,1.23,2.13a.41.41,0,0,0,.36.21H9.66l2.13,1.22a.4.4,0,0,0,.42,0l2.12-1.22h2.46a.41.41,0,0,0,.36-.21l1.23-2.13,2.13-1.23a.41.41,0,0,0,.21-.36V14.34l1.22-2.13A.4.4,0,0,0,21.94,11.79ZM20,14a.36.36,0,0,0-.06.2v2.34l-2,1.16a.54.54,0,0,0-.15.15l-1.16,2H14.22A.36.36,0,0,0,14,20l-2,1.16L10,20a.37.37,0,0,0-.21-.06H7.44l-1.16-2a.54.54,0,0,0-.15-.15l-2-1.16V14.23A.37.37,0,0,0,4.05,14L2.89,12l1.16-2a.36.36,0,0,0,.06-.2V7.44l2-1.16a.54.54,0,0,0,.15-.15l1.16-2H9.77A.37.37,0,0,0,10,4.05l2-1.16,2,1.16a.36.36,0,0,0,.2.06h2.34l1.16,2a.54.54,0,0,0,.15.15l2,1.16V9.78A.36.36,0,0,0,20,10l1.16,2Z"/><path class="cls-2" d="M10.76,9.53A2.06,2.06,0,1,0,8.7,11.59,2.06,2.06,0,0,0,10.76,9.53ZM8.7,10.76a1.24,1.24,0,0,1,0-2.47,1.24,1.24,0,1,1,0,2.47Z"/><path class="cls-2" d="M15.3,12.41a2.06,2.06,0,1,0,2.06,2.06A2.06,2.06,0,0,0,15.3,12.41Zm0,3.3a1.24,1.24,0,1,1,1.23-1.24A1.24,1.24,0,0,1,15.3,15.71Z"/><path class="cls-2" d="M14.69,7.53a.41.41,0,0,0-.57.14L9.17,15.91a.43.43,0,0,0,.14.57.42.42,0,0,0,.22.05.41.41,0,0,0,.35-.2l4.95-8.24A.42.42,0,0,0,14.69,7.53Z"/></g></g></svg>