<svg xmlns="http://www.w3.org/2000/svg" viewBox="0 0 24 24"><defs><style>.cls-1{fill:none;}.cls-2{fill:#fff;}</style></defs><title>Riskclass_whiteAsset 10</title><g id="Layer_2" data-name="Layer 2"><g id="Layer_9" data-name="Layer 9"><rect class="cls-1" width="24" height="24"/><path class="cls-2" d="M12.35,8.52l-1.57.17a0,0,0,0,0,0,0l-.94,5.6a0,0,0,0,0,0,0l2.88-1a0,0,0,0,1,0,0l-.52,3.54,0,0-.73-.21a0,0,0,0,0,0,0l.95,2.17a0,0,0,0,0,0,0l1.42-2.09s0,0,0,0l-.8.12s0,0,0,0l1.16-5.36s0,0,0,0l-2.93,1.38s0,0,0,0l1.21-4.34A0,0,0,0,0,12.35,8.52Z"/><path class="cls-2" d="M13.43,3.82a1.73,1.73,0,0,0-2.86,0L8.65,6.87a.43.43,0,0,0,.18.61.52.52,0,0,0,.67-.16l1.92-3.06a.71.71,0,0,1,1.16,0l9.35,14.86a.58.58,0,0,1,0,.62.68.68,0,0,1-.58.3H17.93a.45.45,0,1,0,0,.9h3.42a1.65,1.65,0,0,0,1.43-.76,1.42,1.42,0,0,0,0-1.51Z"/><path class="cls-2" d="M16.58,20H2.65a.68.68,0,0,1-.58-.3.58.58,0,0,1,0-.62L8.8,8.43a.43.43,0,0,0-.18-.61A.52.52,0,0,0,8,8L1.22,18.67a1.42,1.42,0,0,0,0,1.51,1.65,1.65,0,0,0,1.43.76H16.58a.45.45,0,1,0,0-.9Z"/></g></g></svg>