<svg xmlns="http://www.w3.org/2000/svg" viewBox="0 0 39.27 48"><defs><style>.cls-1{fill:#fff;}</style></defs><title>self quote_rolover</title><g id="Layer_2" data-name="Layer 2"><g id="Chatbot"><path class="cls-1" d="M6.55,22.91a1.09,1.09,0,0,0,0-2.18H5.45a1.09,1.09,0,0,0,0,2.18Z"/><path class="cls-1" d="M25.09,20.73H24a1.09,1.09,0,0,0,0,2.18h1.09a1.09,1.09,0,0,0,0-2.18Z"/><path class="cls-1" d="M16.36,13.09V12a1.09,1.09,0,0,0-2.18,0v1.09a1.09,1.09,0,0,0,2.18,0Z"/><path class="cls-1" d="M9.5,16a1.1,1.1,0,0,0,0-1.54L8.41,13.41A1.09,1.09,0,1,0,6.86,15L8,16a1.09,1.09,0,0,0,.78.32A1.07,1.07,0,0,0,9.5,16Z"/><path class="cls-1" d="M22.14,30.23a1.11,1.11,0,0,0,1.54,0,1.09,1.09,0,0,0,0-1.55l-1.09-1.09a1.09,1.09,0,0,0-1.54,1.55Z"/><path class="cls-1" d="M23.68,13.41a1.09,1.09,0,0,0-1.54,0L21.05,14.5a1.08,1.08,0,0,0,0,1.54,1.05,1.05,0,0,0,.77.32,1.08,1.08,0,0,0,.77-.31L23.68,15A1.09,1.09,0,0,0,23.68,13.41Z"/><path class="cls-1" d="M6.86,30.23a1.13,1.13,0,0,0,.78.32,1.11,1.11,0,0,0,.77-.32L9.5,29.14a1.11,1.11,0,0,0,0-1.55,1.1,1.1,0,0,0-1.54,0l-1.1,1.09A1.11,1.11,0,0,0,6.86,30.23Z"/><path class="cls-1" d="M13.73,32.73h3.09l2.82-2.82V26.68a6.55,6.55,0,1,0-8.73,0v3.23ZM17.45,29l-1.54,1.55H14.63L13.09,29V28a6.44,6.44,0,0,0,4.36,0v1ZM15.27,17.45A4.36,4.36,0,0,1,16.36,26V24a1.13,1.13,0,0,0,.78-.32l1.09-1.09a1.09,1.09,0,0,0-1.55-1.54l-.39.39a1.1,1.1,0,0,0-1-.71,1.08,1.08,0,0,0-1,.71l-.4-.39a1.09,1.09,0,0,0-1.54,1.54l1.09,1.09a1.09,1.09,0,0,0,.77.32v2a4.36,4.36,0,0,1,1.09-8.58Z"/><path class="cls-1" d="M6.55,8.73H24a1.09,1.09,0,0,0,0-2.18H6.55a1.09,1.09,0,1,0,0,2.18Z"/><path class="cls-1" d="M16.36,36H6.55a1.09,1.09,0,1,0,0,2.18h9.81a1.09,1.09,0,0,0,0-2.18Z"/><path class="cls-1" d="M39.26,9.75a1.27,1.27,0,0,0-.06-.28l0-.1A1,1,0,0,0,39,9.05L30.23.32a1.26,1.26,0,0,0-.32-.21l-.1,0A1.5,1.5,0,0,0,29.52,0H4.36A4.37,4.37,0,0,0,0,4.36V43.64A4.37,4.37,0,0,0,4.36,48H34.91a4.36,4.36,0,0,0,4.36-4.36V9.82S39.26,9.77,39.26,9.75Zm-8.71-6,5,5h-5Zm4.36,42.1H4.36a2.19,2.19,0,0,1-2.18-2.18V4.36A2.19,2.19,0,0,1,4.36,2.18h24V9.82a1.09,1.09,0,0,0,1.09,1.09h7.64V43.64A2.19,2.19,0,0,1,34.91,45.82Z"/><path class="cls-1" d="M30.55,32.73a1.09,1.09,0,0,1,1.09,1.09,1.09,1.09,0,0,0,2.18,0,3.29,3.29,0,0,0-2.22-3.09,1.16,1.16,0,0,0,0-.18v-1.1a1.1,1.1,0,0,0-2.19,0v1.1a1.16,1.16,0,0,0,0,.18,3.27,3.27,0,0,0,1.06,6.36,1.09,1.09,0,1,1-1.1,1.09,1.09,1.09,0,0,0-2.18,0,3.27,3.27,0,0,0,2.18,3.07v1.29a1.1,1.1,0,1,0,2.19,0V41.25a3.26,3.26,0,0,0-1.09-6.34,1.09,1.09,0,1,1,0-2.18Z"/><path class="cls-1" d="M24,36H20.73a1.09,1.09,0,0,0,0,2.18H24A1.09,1.09,0,0,0,24,36Z"/><path class="cls-1" d="M24,39.27H20.73a1.09,1.09,0,1,0,0,2.18H24a1.09,1.09,0,1,0,0-2.18Z"/></g></g></svg>