<svg xmlns="http://www.w3.org/2000/svg" viewBox="0 0 24 24"><defs><style>.cls-1{fill:none;}.cls-2{fill:#fff;}</style></defs><title>ExpandAsset 16</title><g id="Layer_2" data-name="Layer 2"><g id="Layer_1-2" data-name="Layer 1"><rect class="cls-1" width="24" height="24"/><path class="cls-2" d="M2.73,22a.66.66,0,0,1-.67-.67V2.72a.66.66,0,0,1,.67-.67H21.29a.66.66,0,0,1,.65.67v8.9a.67.67,0,0,1-.67.67.66.66,0,0,1-.66-.67V3.38H3.39V20.62h8.29a.67.67,0,0,1,0,1.33Zm11.73,0a.66.66,0,0,1-.66-.67V14.45a.65.65,0,0,1,.66-.66h6.81a.66.66,0,0,1,.67.66v6.81a.67.67,0,0,1-.67.67Zm6.15-1.33V15.12H15.13V20.6Zm-8.09-7.43A.66.66,0,0,1,12,13L6.81,7.75V10.5a.67.67,0,0,1-1.33,0V6.13a.65.65,0,0,1,.66-.66h4.37a.67.67,0,0,1,0,1.33H7.76L13,12.05a.6.6,0,0,1,.19.44.64.64,0,0,1-.67.68Z"/><path class="cls-2" d="M21.29,2.18a.53.53,0,0,1,.52.54v8.9a.54.54,0,1,1-1.08,0V3.26H3.27V20.74h8.41a.54.54,0,0,1,.54.54.53.53,0,0,1-.54.54H2.73a.53.53,0,0,1-.54-.54V2.72a.53.53,0,0,1,.54-.54H21.29M10.51,5.59a.54.54,0,0,1,0,1.08H7.46l5.45,5.47a.54.54,0,0,1,0,.76.58.58,0,0,1-.78,0L6.68,7.45V10.5a.53.53,0,0,1-.54.54.54.54,0,0,1-.54-.54V6.13a.54.54,0,0,1,.54-.54h4.37m10.76,8.32a.54.54,0,0,1,.54.54v6.81a.54.54,0,0,1-.54.54H14.46a.54.54,0,0,1-.54-.54V14.45a.54.54,0,0,1,.54-.54h6.81M15,20.72h5.73V15H15v5.73M21.29,1.93H2.73a.78.78,0,0,0-.79.79V21.28a.78.78,0,0,0,.79.79h9a.79.79,0,1,0,0-1.58H3.52v-17h17v8.11a.79.79,0,1,0,1.58,0V2.72a.77.77,0,0,0-.77-.79ZM10.51,5.34H6.14a.79.79,0,0,0-.79.79V10.5a.79.79,0,0,0,1.58,0V8.05l5,5a.78.78,0,0,0,.57.23.74.74,0,0,0,.56-.23.76.76,0,0,0,0-1.12l-5-5h2.47a.79.79,0,0,0,0-1.58Zm10.76,8.32H14.46a.79.79,0,0,0-.79.79v6.81a.79.79,0,0,0,.79.79h6.81a.79.79,0,0,0,.79-.79V14.45a.79.79,0,0,0-.79-.79Zm-6,1.58h5.23v5.23H15.25V15.24Z"/></g></g></svg>