<svg xmlns="http://www.w3.org/2000/svg" viewBox="0 0 24 24"><defs><style>.cls-1{fill:none;}.cls-2{fill:#fff;}</style></defs><title>MinimizeAsset 17</title><g id="Layer_2" data-name="Layer 2"><g id="Layer_14" data-name="Layer 14"><rect class="cls-1" width="24" height="24"/><path class="cls-2" d="M2.73,22a.66.66,0,0,1-.67-.67V2.72a.66.66,0,0,1,.67-.67H21.29a.66.66,0,0,1,.65.67v8.9a.67.67,0,0,1-.67.67.66.66,0,0,1-.66-.67V3.38H3.39V20.62h8.29a.67.67,0,0,1,0,1.33Zm11.73,0a.66.66,0,0,1-.66-.67V14.45a.65.65,0,0,1,.66-.66h6.81a.66.66,0,0,1,.67.66v6.81a.67.67,0,0,1-.67.67Zm6.15-1.33V15.12H15.13V20.6ZM8.16,13.17a.67.67,0,0,1,0-1.33h2.77L5.68,6.59a.57.57,0,0,1-.2-.44.69.69,0,0,1,.2-.5.64.64,0,0,1,.47-.18.66.66,0,0,1,.48.18l5.23,5.24V8.14a.66.66,0,0,1,.67-.66.65.65,0,0,1,.66.66v4.37a.65.65,0,0,1-.66.66Z"/><path class="cls-2" d="M21.29,2.18a.53.53,0,0,1,.52.54v8.9a.54.54,0,1,1-1.08,0V3.26H3.27V20.74h8.41a.54.54,0,0,1,.54.54.53.53,0,0,1-.54.54H2.73a.53.53,0,0,1-.54-.54V2.72a.53.53,0,0,1,.54-.54H21.29M6.15,5.59a.54.54,0,0,1,.39.15L12,11.19v-3a.54.54,0,1,1,1.08,0v4.37a.54.54,0,0,1-.54.54H8.16a.54.54,0,0,1,0-1.08h3.07L5.76,6.5a.54.54,0,0,1,0-.76.56.56,0,0,1,.39-.15m15.12,8.32a.54.54,0,0,1,.54.54v6.81a.54.54,0,0,1-.54.54H14.46a.54.54,0,0,1-.54-.54V14.45a.54.54,0,0,1,.54-.54h6.81M15,20.72h5.73V15H15v5.73M21.29,1.93H2.73a.78.78,0,0,0-.79.79V21.28a.78.78,0,0,0,.79.79h9a.79.79,0,1,0,0-1.58H3.52v-17h17v8.11a.79.79,0,1,0,1.58,0V2.72a.77.77,0,0,0-.77-.79ZM6.15,5.34a.77.77,0,0,0-.56.23.76.76,0,0,0,0,1.12l5,5H8.14a.79.79,0,0,0,0,1.58h4.37a.79.79,0,0,0,.79-.79V8.14a.79.79,0,0,0-1.58,0v2.45l-5-5a.78.78,0,0,0-.57-.23Zm15.12,8.32H14.46a.79.79,0,0,0-.79.79v6.81a.79.79,0,0,0,.79.79h6.81a.79.79,0,0,0,.79-.79V14.45a.79.79,0,0,0-.79-.79Zm-6,1.58h5.23v5.23H15.25V15.24Z"/></g></g></svg>