<svg xmlns="http://www.w3.org/2000/svg" viewBox="0 0 72 72"><defs><style>.cls-1{fill:none;}.cls-2{fill:#0097d6;}.cls-3{fill:#79b236;stroke:#fff;stroke-miterlimit:10;stroke-width:0.94px;}.cls-4{fill:#fff;}</style></defs><title>ChaticonAsset 5</title><g id="Layer_2" data-name="Layer 2"><g id="Layer_2-2" data-name="Layer 2"><rect class="cls-1" width="72" height="72"/><path class="cls-2" d="M56.47,53.84a6.57,6.57,0,0,1,9.87-5.7V10.8A6.31,6.31,0,0,0,60,4.5H9.64a6.32,6.32,0,0,0-6.3,6.3V67.5l12.6-12.6H56.56A6.23,6.23,0,0,1,56.47,53.84Z"/><circle class="cls-3" cx="63.02" cy="53.84" r="5.17"/><path class="cls-4" d="M45.21,32.6V20.16A3.12,3.12,0,0,0,42.09,17H21a3.12,3.12,0,0,0-3.12,3.12V32.6A3.12,3.12,0,0,0,21,35.72h.89v3.75a1.25,1.25,0,0,0,1.26,1.25h0a1.26,1.26,0,0,0,.95-.44l3.95-4.57h14A3.11,3.11,0,0,0,45.21,32.6ZM27.69,34a.82.82,0,0,0-.64.29l-3.43,4V34.87a.85.85,0,0,0-.85-.85H21a1.43,1.43,0,0,1-1.43-1.43V20.16A1.44,1.44,0,0,1,21,18.73H42.09a1.44,1.44,0,0,1,1.43,1.43V32.6A1.44,1.44,0,0,1,42.09,34Z"/><path class="cls-4" d="M45.55,45.41a1.24,1.24,0,0,0,.94.43,1.11,1.11,0,0,0,.44-.08,1.24,1.24,0,0,0,.82-1.18V40.84h.89a3.14,3.14,0,0,0,3.13-3.13V25.28a3.13,3.13,0,0,0-3.13-3.12.85.85,0,1,0,0,1.69,1.43,1.43,0,0,1,1.43,1.43V37.71a1.43,1.43,0,0,1-1.43,1.43H46.91a.85.85,0,0,0-.85.85V43.4l-3.43-4a.84.84,0,0,0-.65-.29H29.26a.85.85,0,1,0,0,1.7H41.6Z"/><circle class="cls-4" cx="31.56" cy="26.68" r="1.44"/><circle class="cls-4" cx="36.38" cy="26.68" r="1.44"/><circle class="cls-4" cx="26.75" cy="26.68" r="1.44"/></g></g></svg>