<?xml version="1.0" encoding="utf-8"?>
<!-- Generator: Adobe Illustrator 21.1.0, SVG Export Plug-In . SVG Version: 6.00 Build 0)  -->
<!DOCTYPE svg PUBLIC "-//W3C//DTD SVG 1.1//EN" "http://www.w3.org/Graphics/SVG/1.1/DTD/svg11.dtd">
<svg version="1.1" id="Layer_1" xmlns="http://www.w3.org/2000/svg" xmlns:xlink="http://www.w3.org/1999/xlink" x="0px" y="0px"
	 viewBox="0 0 500 500" style="enable-background:new 0 0 500 500;" xml:space="preserve">
<style type="text/css">
	.st0{fill:url(#SVGID_1_);}
	.st1{fill:url(#SVGID_2_);}
	.st2{fill:url(#SVGID_3_);}
	.st3{fill:url(#SVGID_4_);}
	.st4{fill:url(#SVGID_5_);}
	.st5{fill:url(#SVGID_6_);}
</style>
<g>
	<linearGradient id="SVGID_1_" gradientUnits="userSpaceOnUse" x1="250" y1="3.5229" x2="250" y2="499.0332">
		<stop  offset="0" style="stop-color:#27C3ED"/>
		<stop  offset="1" style="stop-color:#0382E8"/>
	</linearGradient>
	<path class="st0" d="M495.6,99.2c-1-17.4-11.5-32.7-27.2-40.4C347,0.1,257.4,0.6,250.1,0.7C242.8,0.6,153,0.1,31.7,58.8
		C15.9,66.5,5.6,81.9,4.4,99.2C1.7,144.1-2.8,260.4,15,370.4c2.7,16.9,11,32.7,23.4,44.6c33.3,31.7,105,84.9,211.5,84.9
		c106.8,0,178.3-53.3,211.5-84.9c12.3-11.8,20.8-27.5,23.4-44.6C502.8,260.6,498.3,144.1,495.6,99.2z M249.1,27c0.3,0,0.7,0,0.7,0
		h0.3h0.3c0.6-0.1,49.9-1,124.3,22.7v25.7c0,3.2-1.4,6.3-4.2,8.2c-2.7,2.2-6,2.7-9.3,1.7c-66.8-19.4-110.3-18.4-110.9-18.4h-1.3
		c-7.5,0-48.3,0.9-109,18.2c-3.2,0.9-6.6,0.1-9.3-1.7c-2.7-2-4.2-5-4.2-8.2V49.3C195.2,27.8,242,27,249.1,27z M459,366.1
		c-1.7,11.3-7.3,21.8-15.6,29.7c-30.4,29-95.8,77.6-193.3,77.6S87.2,424.8,56.8,395.8c-8.2-7.9-13.8-18.4-15.6-29.7
		C23.9,258.8,28.2,144.7,30.9,100.7c0.6-7.9,5.2-14.9,12.3-18.2C70,69.5,94.9,59.8,117.9,52.2v22.9c0,6,2.9,11.8,7.7,15.3
		c4.9,3.7,11,4.9,16.9,3.2c60.2-17.4,101.4-17.9,107.1-17.9c0.1,0,0.1,0,0.1,0h0.9c0.6,0,43.3-0.6,108,18.1c1.7,0.6,3.6,0.7,5.3,0.7
		c4.2,0,8-1.3,11.8-3.7c4.9-3.7,7.7-9.3,7.7-15.3V52.5c22.5,7.6,47,17.4,73.1,30c7.2,3.6,11.8,10.6,12.3,18.2
		C471.8,144.7,476.1,258.8,459,366.1z"/>
	<linearGradient id="SVGID_2_" gradientUnits="userSpaceOnUse" x1="144.2401" y1="3.5229" x2="144.2401" y2="499.0332">
		<stop  offset="0" style="stop-color:#27C3ED"/>
		<stop  offset="1" style="stop-color:#0382E8"/>
	</linearGradient>
	<path class="st1" d="M169.5,290v-68.8c0-13.9-11.3-25.2-25.2-25.2c-13.9,0-25.2,11.3-25.2,25.2V290c0,13.9,11.3,25.2,25.2,25.2
		C158.2,315.2,169.6,303.9,169.5,290z"/>
	<linearGradient id="SVGID_3_" gradientUnits="userSpaceOnUse" x1="356.2004" y1="3.5229" x2="356.2004" y2="499.0332">
		<stop  offset="0" style="stop-color:#27C3ED"/>
		<stop  offset="1" style="stop-color:#0382E8"/>
	</linearGradient>
	<path class="st2" d="M356.2,195.9c-13.9,0-25.2,11.3-25.2,25.2V290c-0.1,13.9,11,25.2,25.2,25.2c13.9,0,25.2-11.3,25.2-25.2v-68.8
		C381.3,207.1,370.1,195.9,356.2,195.9z"/>
	<linearGradient id="SVGID_4_" gradientUnits="userSpaceOnUse" x1="133.975" y1="3.5229" x2="133.975" y2="499.0332">
		<stop  offset="0" style="stop-color:#27C3ED"/>
		<stop  offset="1" style="stop-color:#0382E8"/>
	</linearGradient>
	<path class="st3" d="M177.1,140.4c-0.6-3.4-3.9-5.7-7.2-5.2c-44,7.3-75.9,37-77.2,38.3c-2.6,2.4-2.6,6.3-0.3,8.9
		c1.3,1.3,2.9,2,4.6,2c1.6,0,3.2-0.6,4.3-1.7c0.3-0.3,30.4-28.3,70.7-35C175.4,147,177.7,143.8,177.1,140.4z"/>
	<linearGradient id="SVGID_5_" gradientUnits="userSpaceOnUse" x1="366.852" y1="3.5229" x2="366.852" y2="499.0332">
		<stop  offset="0" style="stop-color:#27C3ED"/>
		<stop  offset="1" style="stop-color:#0382E8"/>
	</linearGradient>
	<path class="st4" d="M330.8,135.2c-3.4-0.6-6.6,1.7-7.2,5.2c-0.6,3.4,1.7,6.6,5.2,7.2c40.2,6.7,70.4,34.7,70.7,35
		c1.1,1.1,2.7,1.7,4.3,1.7c1.7,0,3.3-0.7,4.6-2c2.4-2.6,2.3-6.5-0.3-8.9C406.7,172.2,374.7,142.7,330.8,135.2z"/>
	<linearGradient id="SVGID_6_" gradientUnits="userSpaceOnUse" x1="250.0925" y1="3.5229" x2="250.0925" y2="499.0332">
		<stop  offset="0" style="stop-color:#27C3ED"/>
		<stop  offset="1" style="stop-color:#0382E8"/>
	</linearGradient>
	<path class="st5" d="M357.8,369.7c-61.5-6.5-107.7-6-107.7-6s-46.2-0.3-107.7,6c-6.5,0.7-9.5,8.6-5,13.5
		c17.4,18.2,56.5,51.9,112.7,51.9s95.4-33.4,112.7-51.9C367.2,378.3,364.4,370.4,357.8,369.7z M284.6,419.6
		c-10.6,2.9-22.2,4.6-34.6,4.6c-12.3,0-23.9-1.7-34.6-4.7c-5.6-1.6-7.3-8.7-2.9-12.6c7.5-6.6,21.5-11,37.4-11c16.1,0,30,4.4,37.6,11
		C292,410.9,290.2,418,284.6,419.6z"/>
</g>
</svg>
