<svg xmlns="http://www.w3.org/2000/svg" viewBox="0 0 280 258.02"><defs><style>.cls-1,.cls-2,.cls-3{fill:none;}.cls-1{stroke:#02739b;stroke-width:2px;}.cls-1,.cls-2,.cls-3,.cls-5{stroke-miterlimit:10;}.cls-2{stroke:#cee9f2;}.cls-2,.cls-3{stroke-linecap:round;stroke-width:3px;}.cls-3{stroke:#fff;}.cls-4{fill:#e8f4f9;}.cls-5{fill:#02739b;stroke:#e8f4f9;}</style></defs><title>Asset 79</title><g id="Layer_2" data-name="Layer 2"><g id="Chatbot"><g id="_Group_" data-name="&lt;Group&gt;"><g id="_Group_2" data-name="&lt;Group&gt;"><path id="_Path_" data-name="&lt;Path&gt;" class="cls-1" d="M49.15,134.25C49,132.51,49,130.75,49,129a87.93,87.93,0,0,1,3.58-24.91"/><path id="_Path_2" data-name="&lt;Path&gt;" class="cls-1" d="M93.61,205.62a88.79,88.79,0,0,1-36.9-40.54"/><path id="_Path_3" data-name="&lt;Path&gt;" class="cls-1" d="M225,113.9a88.28,88.28,0,0,1-8.81,56"/><path id="_Path_4" data-name="&lt;Path&gt;" class="cls-1" d="M65.67,77.43A88.84,88.84,0,0,1,218,91.63"/></g><g id="_Group_3" data-name="&lt;Group&gt;"><path id="_Path_5" data-name="&lt;Path&gt;" class="cls-2" d="M14.12,95.18a127.92,127.92,0,0,1,61-77.54"/><path id="_Path_6" data-name="&lt;Path&gt;" class="cls-2" d="M233.43,213.6a128.24,128.24,0,0,1-222-62.94"/><path id="_Path_7" data-name="&lt;Path&gt;" class="cls-2" d="M243.07,56.6A127.17,127.17,0,0,1,247,195.35"/><path id="_Path_8" data-name="&lt;Path&gt;" class="cls-2" d="M166.43,4.7a128,128,0,0,1,63.61,36"/><path id="_Path_9" data-name="&lt;Path&gt;" class="cls-2" d="M97.18,8A128.21,128.21,0,0,1,134.29,1.5"/></g><path id="_Path_10" data-name="&lt;Path&gt;" class="cls-2" d="M245.28,89.85a2.47,2.47,0,1,1-2.46-2.45A2.46,2.46,0,0,1,245.28,89.85Z"/><path id="_Path_11" data-name="&lt;Path&gt;" class="cls-2" d="M228.73,252.19a2.47,2.47,0,1,1-2.47-2.46A2.46,2.46,0,0,1,228.73,252.19Z"/><path id="_Path_12" data-name="&lt;Path&gt;" class="cls-3" d="M157.32,12.85a2.47,2.47,0,1,1-2.46-2.46A2.46,2.46,0,0,1,157.32,12.85Z"/><path id="_Path_13" data-name="&lt;Path&gt;" class="cls-3" d="M6.43,112.78A2.47,2.47,0,1,1,4,110.32,2.46,2.46,0,0,1,6.43,112.78Z"/><ellipse id="_Path_14" data-name="&lt;Path&gt;" class="cls-3" cx="273.88" cy="151.83" rx="1.88" ry="1.87"/><path id="_Path_15" data-name="&lt;Path&gt;" class="cls-3" d="M219.83,126.41a1.88,1.88,0,1,1-1.87-1.87A1.87,1.87,0,0,1,219.83,126.41Z"/><path id="_Path_16" data-name="&lt;Path&gt;" class="cls-2" d="M25.92,135.61A1.88,1.88,0,1,1,24,133.74,1.87,1.87,0,0,1,25.92,135.61Z"/><path id="_Path_17" data-name="&lt;Path&gt;" class="cls-3" d="M228.14,195.35a1.88,1.88,0,1,1-1.88-1.87A1.88,1.88,0,0,1,228.14,195.35Z"/><path id="_Path_18" data-name="&lt;Path&gt;" class="cls-3" d="M24,215.74a1.88,1.88,0,1,1-1.88-1.87A1.88,1.88,0,0,1,24,215.74Z"/><path id="_Path_19" data-name="&lt;Path&gt;" class="cls-2" d="M58.59,53.52a1.88,1.88,0,1,1-1.88-1.87A1.87,1.87,0,0,1,58.59,53.52Z"/><path id="_Path_20" data-name="&lt;Path&gt;" class="cls-3" d="M27.8,42.39a1.88,1.88,0,1,1-1.88-1.87A1.87,1.87,0,0,1,27.8,42.39Z"/><ellipse id="_Path_21" data-name="&lt;Path&gt;" class="cls-3" cx="226.26" cy="14.72" rx="1.88" ry="1.87"/><ellipse id="_Path_22" data-name="&lt;Path&gt;" class="cls-2" cx="239.31" cy="203.59" rx="1.37" ry="1.36"/><ellipse id="_Path_23" data-name="&lt;Path&gt;" class="cls-2" cx="39.05" cy="221.55" rx="1.37" ry="1.36"/><ellipse id="_Path_24" data-name="&lt;Path&gt;" class="cls-2" cx="59.96" cy="245.9" rx="1.37" ry="1.36"/><ellipse id="_Path_25" data-name="&lt;Path&gt;" class="cls-2" cx="44.64" cy="60.13" rx="1.37" ry="1.36"/><ellipse id="_Path_26" data-name="&lt;Path&gt;" class="cls-2" cx="86.07" cy="13.35" rx="1.37" ry="1.36"/><ellipse id="_Path_27" data-name="&lt;Path&gt;" class="cls-2" cx="277.13" cy="134.25" rx="1.37" ry="1.36"/><ellipse id="_Path_28" data-name="&lt;Path&gt;" class="cls-2" cx="245.28" cy="41.54" rx="1.37" ry="1.36"/><ellipse id="_Path_29" data-name="&lt;Path&gt;" class="cls-2" cx="250.46" cy="153.7" rx="1.37" ry="1.36"/><ellipse id="_Path_30" data-name="&lt;Path&gt;" class="cls-2" cx="32.59" cy="147.12" rx="1.37" ry="1.36"/></g><ellipse class="cls-4" cx="139.35" cy="129.01" rx="60.8" ry="60.64"/><path class="cls-5" d="M164.17,148.74,150.4,143A44.41,44.41,0,0,0,161,139.8a3.92,3.92,0,0,0,2.26-3.55c-.14-18.82-2.77-43.85-23.9-43.85s-23.76,25-23.9,43.85a3.88,3.88,0,0,0,2.26,3.55A44.33,44.33,0,0,0,128.29,143l-13.77,5.72a6.27,6.27,0,0,0-3.87,5.8v6.39a4.69,4.69,0,0,0,4.7,4.68h48a4.7,4.7,0,0,0,4.7-4.68v-6.39A6.27,6.27,0,0,0,164.17,148.74Zm-3.92-12.47a.91.91,0,0,1-.53.82,42.23,42.23,0,0,1-10.87,3.16v-2l2.67-1.48a7.85,7.85,0,0,0,4-6.17v-.07H157a4.67,4.67,0,0,0,3.1-1.17C160.17,131.53,160.23,133.84,160.25,136.27Zm-20.9-1a27.31,27.31,0,0,0,12.22-2.46,4.87,4.87,0,0,1-1.51,1.3l-8.33,4.61a4.86,4.86,0,0,1-4.76,0l-8.34-4.61a4.92,4.92,0,0,1-2.5-3.83L125,117.58c4.2-.48,16.11-2.08,23.29-5.64a12.23,12.23,0,0,0,5.49,5.28l-1,11.3c-1.22,1.08-5.11,3.78-13.37,3.78a1.5,1.5,0,1,0,0,3Zm16.48-7.78.6-6.58H157a1.7,1.7,0,0,1,1.7,1.69v3.2a1.7,1.7,0,0,1-1.7,1.69Zm-33-20.33c3.38-7.93,8.8-11.79,16.55-11.79s13.16,3.86,16.55,11.79a48.72,48.72,0,0,1,3,11.2,4.79,4.79,0,0,0-2-.44h-.25l.14-1.56a1.49,1.49,0,0,0-1-1.56,9.46,9.46,0,0,1-5.45-5.44,1.48,1.48,0,0,0-.9-.93,1.54,1.54,0,0,0-1.29.12c-7.62,4.56-24.8,6.16-25,6.18a1.51,1.51,0,0,0-1.36,1.63l.15,1.56h-.25a4.76,4.76,0,0,0-2,.44A48.22,48.22,0,0,1,122.8,107.18Zm.07,20.33h-1.12a1.7,1.7,0,0,1-1.7-1.69v-3.2a1.7,1.7,0,0,1,1.7-1.69h.52ZM119,137.09a.88.88,0,0,1-.53-.82c0-2.43.08-4.74.19-6.94a4.69,4.69,0,0,0,3.11,1.17h1.39v.07a7.83,7.83,0,0,0,4,6.17l2.67,1.48v2A42.11,42.11,0,0,1,119,137.09Zm11,8.48a4.68,4.68,0,0,0,2.9-4.33v-1.36l2.66,1.48a7.85,7.85,0,0,0,7.67,0l2.67-1.48v1.36a4.67,4.67,0,0,0,2.89,4.33l1.7.71c-4.94,5.87-9.76,7.84-11.1,8.29-1.33-.45-6.12-2.38-11.09-8.29Zm-9.7,17.05h-4.9a1.7,1.7,0,0,1-1.7-1.69v-6.39a3.33,3.33,0,0,1,.21-1.18l5.15,4.1a3.28,3.28,0,0,1,1.24,2.57Zm35.2-2.59v2.59h-32.2V160a6.26,6.26,0,0,0-2.37-4.9l-4.77-3.81,9.25-3.84,0,0c6.64,8.28,13.32,10,13.6,10.09a1.55,1.55,0,0,0,.37,0,1.47,1.47,0,0,0,.36,0c.28-.07,7-1.81,13.61-10.09v0l9.25,3.84-4.77,3.81A6.25,6.25,0,0,0,155.45,160Zm9.6.9a1.7,1.7,0,0,1-1.7,1.69h-4.9V160a3.28,3.28,0,0,1,1.24-2.58l5.14-4.1a3.34,3.34,0,0,1,.22,1.18Z"/></g></g></svg>