<svg xmlns="http://www.w3.org/2000/svg" viewBox="0 0 24 24"><defs><style>.cls-1{fill:none;}.cls-2{fill:#fff;}</style></defs><title>mecy_whiteAsset 1</title><g id="Layer_2" data-name="Layer 2"><g id="Layer_1-2" data-name="Layer 1"><rect class="cls-1" width="24" height="24"/><path class="cls-2" d="M19.72,18.15l-4.28-1.78a14,14,0,0,0,3.29-1,1.21,1.21,0,0,0,.7-1.1C19.39,8.39,18.57.59,12,.59S4.61,8.39,4.57,14.26a1.21,1.21,0,0,0,.7,1.1,14,14,0,0,0,3.29,1L4.28,18.15A1.94,1.94,0,0,0,3.08,20v2a1.46,1.46,0,0,0,1.46,1.46H19.46A1.46,1.46,0,0,0,20.92,22V20A1.94,1.94,0,0,0,19.72,18.15ZM18.5,14.26a.3.3,0,0,1-.17.26,12.83,12.83,0,0,1-3.38,1v-.63l.83-.46A2.46,2.46,0,0,0,17,12.49v0h.43a1.46,1.46,0,0,0,1-.37C18.47,12.78,18.49,13.51,18.5,14.26ZM12,14a8.48,8.48,0,0,0,3.8-.77,1.7,1.7,0,0,1-.47.41L12.74,15a1.5,1.5,0,0,1-1.48,0L8.67,13.6a1.56,1.56,0,0,1-.78-1.2l-.36-4a25.67,25.67,0,0,0,7.24-1.76,3.84,3.84,0,0,0,1.71,1.65l-.32,3.52A6.14,6.14,0,0,1,12,13a.46.46,0,0,0-.47.46A.47.47,0,0,0,12,14Zm5.12-2.43.19-2h.16A.53.53,0,0,1,18,10v1a.52.52,0,0,1-.53.52ZM6.86,5.2c1-2.47,2.73-3.67,5.14-3.67s4.09,1.2,5.14,3.67a15,15,0,0,1,.95,3.49,1.44,1.44,0,0,0-.62-.14h-.08l.05-.49a.46.46,0,0,0-.32-.48,2.93,2.93,0,0,1-1.69-1.7.5.5,0,0,0-.28-.29.53.53,0,0,0-.41,0C12.38,7.05,7,7.55,7,7.56a.47.47,0,0,0-.42.5l.05.49H6.53a1.44,1.44,0,0,0-.62.14A15,15,0,0,1,6.86,5.2Zm0,6.33H6.53A.52.52,0,0,1,6,11V10a.53.53,0,0,1,.53-.53h.16Zm-1.21,3a.3.3,0,0,1-.17-.26c0-.75,0-1.48.06-2.16a1.46,1.46,0,0,0,1,.37H7v0a2.46,2.46,0,0,0,1.26,1.92l.83.46v.63A12.83,12.83,0,0,1,5.67,14.52Zm3.41,2.64a1.46,1.46,0,0,0,.9-1.35v-.42l.83.46a2.44,2.44,0,0,0,2.38,0l.83-.46v.42a1.46,1.46,0,0,0,.9,1.35l.53.22A8.35,8.35,0,0,1,12,20a8.15,8.15,0,0,1-3.45-2.59Zm-3,5.31H4.54A.52.52,0,0,1,4,22V20a1.11,1.11,0,0,1,.07-.37l1.6,1.28a1,1,0,0,1,.38.8ZM17,21.67v.8H7v-.8a1.94,1.94,0,0,0-.74-1.53L4.78,19l2.87-1.19h0a8.84,8.84,0,0,0,4.23,3.15h.22a8.84,8.84,0,0,0,4.23-3.15h0L19.22,19l-1.48,1.19A1.94,1.94,0,0,0,17,21.67ZM20,22a.52.52,0,0,1-.53.52H17.94v-.8a1,1,0,0,1,.38-.8l1.6-1.28A1.11,1.11,0,0,1,20,20Z"/></g></g></svg>