<svg xmlns="http://www.w3.org/2000/svg" viewBox="0 0 48 47.95"><defs><style>.cls-1{fill:#fff;stroke:#0097d6;stroke-miterlimit:10;stroke-width:0.5px;opacity:0.5;}.cls-2{fill:#02739b;}</style></defs><title>Macybig</title><g id="Layer_2" data-name="Layer 2"><g id="Chatbot"><ellipse class="cls-1" cx="24" cy="23.97" rx="23.75" ry="23.72"/><path class="cls-2" d="M33.7,31.69l-5.38-2.23a17.45,17.45,0,0,0,4.13-1.26,1.55,1.55,0,0,0,.89-1.39C33.28,19.44,32.26,9.65,24,9.65s-9.28,9.79-9.34,17.16a1.55,1.55,0,0,0,.89,1.39,17.45,17.45,0,0,0,4.13,1.26L14.3,31.69A2.46,2.46,0,0,0,12.79,34v2.5a1.84,1.84,0,0,0,1.83,1.84H33.38a1.84,1.84,0,0,0,1.83-1.84V34A2.46,2.46,0,0,0,33.7,31.69Zm-1.54-4.87a.35.35,0,0,1-.2.32,16.65,16.65,0,0,1-4.25,1.23v-.79l1-.58a3.07,3.07,0,0,0,1.58-2.42v0h.55a1.82,1.82,0,0,0,1.21-.46C32.13,25,32.16,25.86,32.16,26.82ZM24,26.43a10.67,10.67,0,0,0,4.77-1,1.83,1.83,0,0,1-.59.51l-3.25,1.8a1.87,1.87,0,0,1-1.86,0L19.82,26a1.91,1.91,0,0,1-1-1.5l-.45-5c1.63-.18,6.29-.81,9.09-2.21a4.78,4.78,0,0,0,2.15,2.07l-.41,4.42c-.47.43-2,1.48-5.22,1.48a.59.59,0,1,0,0,1.17Zm6.44-3,.23-2.58h.21a.67.67,0,0,1,.66.67v1.25a.67.67,0,0,1-.66.66Zm-12.91-8C18.86,12.33,21,10.82,24,10.82s5.14,1.51,6.47,4.62a19.13,19.13,0,0,1,1.19,4.38,1.9,1.9,0,0,0-.78-.18h-.1l0-.61a.59.59,0,0,0-.39-.61,3.67,3.67,0,0,1-2.13-2.12.6.6,0,0,0-.36-.37.59.59,0,0,0-.5.05c-3,1.78-9.69,2.41-9.75,2.42a.58.58,0,0,0-.53.63l0,.61h-.1a1.9,1.9,0,0,0-.78.18A19.13,19.13,0,0,1,17.53,15.44Zm0,8h-.44a.67.67,0,0,1-.66-.66V21.48a.67.67,0,0,1,.66-.67h.21ZM16,27.14a.35.35,0,0,1-.2-.32c0-1,0-1.86.07-2.72a1.82,1.82,0,0,0,1.21.46h.55v0A3.07,3.07,0,0,0,19.25,27l1,.58v.79A16.65,16.65,0,0,1,16,27.14Zm4.29,3.31a1.82,1.82,0,0,0,1.13-1.69v-.53l1,.58a3.08,3.08,0,0,0,3,0l1-.58v.53a1.82,1.82,0,0,0,1.13,1.69l.66.28A10.37,10.37,0,0,1,24,34a10.39,10.39,0,0,1-4.33-3.25Zm-3.79,6.67H14.62a.66.66,0,0,1-.66-.66V34a1.22,1.22,0,0,1,.09-.46l2,1.61a1.26,1.26,0,0,1,.49,1Zm13.75-1v1H17.71v-1a2.47,2.47,0,0,0-.92-1.92L14.92,32.7l3.62-1.5h0a11.07,11.07,0,0,0,5.32,3.95h.28a11.07,11.07,0,0,0,5.32-3.95h0l3.62,1.5-1.87,1.49A2.47,2.47,0,0,0,30.29,36.11Zm3.75.35a.66.66,0,0,1-.66.66H31.46v-1a1.26,1.26,0,0,1,.49-1l2-1.61A1.22,1.22,0,0,1,34,34Z"/></g></g></svg>