<svg xmlns="http://www.w3.org/2000/svg" viewBox="0 0 22.08 22.15"><defs><style>.cls-1{fill:#fff;}</style></defs><title>maximize</title><g id="Layer_2" data-name="Layer 2"><g id="Chatbot"><path class="cls-1" d="M.87,22a.72.72,0,0,1-.73-.73V.87A.72.72,0,0,1,.87.14H21.23a.72.72,0,0,1,.71.73v9.79a.73.73,0,0,1-1.46,0V1.6H1.6v19h9.08a.73.73,0,0,1,0,1.46Zm12.87,0a.72.72,0,0,1-.73-.74V13.77a.72.72,0,0,1,.73-.73h7.47a.72.72,0,0,1,.73.73v7.48a.72.72,0,0,1-.73.74Zm6.74-1.47v-6h-6v6Zm-8.87-8.16a.7.7,0,0,1-.53-.2L5.34,6.4v3a.73.73,0,1,1-1.46,0V4.62a.72.72,0,0,1,.73-.73H9.4a.73.73,0,0,1,0,1.46h-3l5.74,5.78a.72.72,0,0,1,.22.49.79.79,0,0,1-.22.54A.69.69,0,0,1,11.61,12.36Z"/><path class="cls-1" d="M21.23.27a.59.59,0,0,1,.57.6v9.79a.59.59,0,0,1-1.18,0V1.46H1.46V20.68h9.22a.59.59,0,0,1,.59.6.58.58,0,0,1-.59.59H.87a.59.59,0,0,1-.6-.59V.87a.6.6,0,0,1,.6-.6H21.23M9.4,4a.6.6,0,0,1,0,1.19H6.06l6,6a.59.59,0,0,1-.85.83l-6-6V9.42A.6.6,0,1,1,4,9.42V4.62A.58.58,0,0,1,4.61,4H9.4m11.81,9.15a.58.58,0,0,1,.59.59v7.48a.59.59,0,0,1-.59.6H13.74a.59.59,0,0,1-.59-.6V13.77a.58.58,0,0,1,.59-.59h7.47m-6.88,7.48h6.29v-6.3H14.33v6.3M21.23,0H.87A.86.86,0,0,0,0,.87V21.28a.86.86,0,0,0,.87.87h9.81a.87.87,0,1,0,0-1.74H1.73V1.74H20.34v8.92a.87.87,0,0,0,1.74,0V.87A.86.86,0,0,0,21.23,0ZM9.4,3.75H4.61a.86.86,0,0,0-.86.87v4.8a.87.87,0,1,0,1.73,0V6.74L11,12.25a.81.81,0,0,0,.62.25.84.84,0,0,0,.62-.25.9.9,0,0,0,.26-.64.86.86,0,0,0-.27-.59L6.72,5.49H9.43a.87.87,0,0,0,0-1.74ZM21.21,12.9H13.74a.86.86,0,0,0-.87.87v7.48a.86.86,0,0,0,.87.87h7.47a.86.86,0,0,0,.87-.87V13.77a.86.86,0,0,0-.87-.87Zm-6.6,1.74h5.73v5.75H14.61V14.64Z"/></g></g></svg>