<svg xmlns="http://www.w3.org/2000/svg" viewBox="0 0 36 35"><defs><style>.cls-1{fill:#fff;}</style></defs><title>auto_rolover</title><g id="Layer_2" data-name="Layer 2"><g id="Chatbot"><path class="cls-1" d="M31,13H5a5,5,0,0,0-5,5v7a3,3,0,0,0,3,3H33a3,3,0,0,0,3-3V18A5,5,0,0,0,31,13Zm3,12a1,1,0,0,1-1,1H3a1,1,0,0,1-1-1V18a3,3,0,0,1,3-3H31a3,3,0,0,1,3,3ZM5,11.29l-2-.58L5.4,2.85A4,4,0,0,1,9.23,0H26.77A4,4,0,0,1,30.6,2.85L33,10.71l-2,.58L28.64,3.42A2,2,0,0,0,26.77,2H9.23A2,2,0,0,0,7.32,3.42ZM8,30h2v2a3,3,0,0,1-3,3H5a3,3,0,0,1-3-3V30H4v2a1,1,0,0,0,1,1H7a1,1,0,0,0,1-1Zm24,0h2v2a3,3,0,0,1-3,3H29a3,3,0,0,1-3-3V30h2v2a1,1,0,0,0,1,1h2a1,1,0,0,0,1-1ZM7,17a3,3,0,1,0,3,3A3,3,0,0,0,7,17Zm0,4a1,1,0,1,1,1-1A1,1,0,0,1,7,21Zm22-4a3,3,0,1,0,3,3A3,3,0,0,0,29,17Zm0,4a1,1,0,1,1,1-1A1,1,0,0,1,29,21ZM13,18H23v2H13Zm0,4H23v2H13Z"/></g></g></svg>