<svg xmlns="http://www.w3.org/2000/svg" viewBox="0 0 44 44"><defs><style>.cls-1{fill:#e8f4f9;}.cls-2{fill:#66dfff;}.cls-3{fill:#02739b;}.cls-4{fill:#e1f8c8;}</style></defs><title>cash</title><g id="Layer_2" data-name="Layer 2"><g id="Layer_1-2" data-name="Layer 1"><path class="cls-1" d="M42.07,25.24h0a2.19,2.19,0,0,0-2.66.33L33,32a4.16,4.16,0,0,1-2.94,1.22H28.84L28.27,33v0a1.81,1.81,0,0,0-.57-2.25L21.18,26a7.64,7.64,0,0,0-7-1.05L7.3,27.32l6.44,11.52H28.58a11.53,11.53,0,0,0,8.85-4.13l5.2-6.19A2.18,2.18,0,0,0,42.07,25.24Z"/><path class="cls-2" d="M12.79,40.85l-4,2.29-8-13.8,4-2.28a1.88,1.88,0,0,1,2.59.69l6.07,10.51A1.88,1.88,0,0,1,12.79,40.85Z"/><path class="cls-3" d="M8.82,44,8.6,44a.84.84,0,0,1-.52-.4l-8-13.8A.85.85,0,0,1,.43,28.6l4-2.29a2.76,2.76,0,0,1,3.77,1l6.07,10.51a2.77,2.77,0,0,1,.27,2.09,2.74,2.74,0,0,1-1.28,1.68h0l-4,2.28A.82.82,0,0,1,8.82,44ZM2,29.66,9.14,42l3.22-1.86h0a1,1,0,0,0,.48-.63,1,1,0,0,0-.1-.79L6.67,28.18a1,1,0,0,0-1.42-.38Z"/><path class="cls-3" d="M9.83,39.36a.85.85,0,1,1,.6-.25A.86.86,0,0,1,9.83,39.36Z"/><path class="cls-3" d="M17.45,39.7a.86.86,0,0,1-.61-.25.88.88,0,0,1-.25-.61.86.86,0,1,1,1.71,0,.88.88,0,0,1-.25.61A.86.86,0,0,1,17.45,39.7Z"/><path class="cls-3" d="M28.58,39.7H21.05a.86.86,0,0,1,0-1.72h7.53a10.65,10.65,0,0,0,8.19-3.82L42,28a1.3,1.3,0,0,0,.29-1.07,1.29,1.29,0,0,0-.63-.92,1.32,1.32,0,0,0-1.61.2l-6.37,6.38A5,5,0,0,1,30.1,34H28.84a.86.86,0,0,1,0-1.72H30.1a3.24,3.24,0,0,0,2.33-1L38.8,25a3,3,0,0,1,4.49,4.11l-5.2,6.19A12.4,12.4,0,0,1,28.58,39.7Z"/><path class="cls-3" d="M26.61,34.9a2.74,2.74,0,0,1-1.19-.28l-6-3a.76.76,0,0,0-.33-.08H17.54a.86.86,0,0,1,0-1.72h1.59a2.47,2.47,0,0,1,1.1.26l5.95,3a1,1,0,0,0,.43.1,1,1,0,0,0,.57-1.74l-6.72-4.91a6.26,6.26,0,0,0-5.74-.87L7.58,28.13A.86.86,0,0,1,7,26.51L14.16,24a8,8,0,0,1,7.32,1.1l6.71,4.91a2.68,2.68,0,0,1-1.58,4.85Z"/><path class="cls-2" d="M37.81,22.77H6.19a.68.68,0,0,1-.69-.68V19.34h33v2.75A.68.68,0,0,1,37.81,22.77Z"/><path class="cls-1" d="M38.5,19.34H5.5V1.61A.76.76,0,0,1,6.25.86h31.5a.76.76,0,0,1,.75.75Z"/><path class="cls-2" d="M33,19.34A5.44,5.44,0,0,1,38.5,13.9h0v5.44Z"/><path class="cls-2" d="M33,.86A5.44,5.44,0,0,0,38.5,6.3h0V1.61a.76.76,0,0,0-.75-.75Z"/><path class="cls-4" d="M10.94.86A5.38,5.38,0,0,1,5.5,6.24h0V1.61A.76.76,0,0,1,6.25.86Z"/><path class="cls-2" d="M11,.86A5.44,5.44,0,0,1,5.5,6.3h0V1.61A.76.76,0,0,1,6.25.86Z"/><path class="cls-2" d="M11,19.34A5.44,5.44,0,0,0,5.5,13.9h0v5.44Z"/><circle class="cls-2" cx="21.98" cy="9.69" r="4.47"/><path class="cls-3" d="M14.71,8.83a.86.86,0,0,0-.61.25.88.88,0,0,0-.25.61.86.86,0,1,0,1.72,0,.88.88,0,0,0-.25-.61A.86.86,0,0,0,14.71,8.83Z"/><path class="cls-3" d="M29.29,8.83a.86.86,0,0,0-.61.25.88.88,0,0,0-.25.61.86.86,0,1,0,1.72,0,.88.88,0,0,0-.25-.61A.86.86,0,0,0,29.29,8.83Z"/><path class="cls-3" d="M22,4.36a5.33,5.33,0,1,0,5.33,5.33A5.33,5.33,0,0,0,22,4.36Zm0,8.94a3.61,3.61,0,1,1,3.61-3.61A3.61,3.61,0,0,1,22,13.3Z"/><path class="cls-3" d="M39.36,6.3h0V1.61A1.61,1.61,0,0,0,37.75,0H6.25A1.61,1.61,0,0,0,4.64,1.61V19.34h0v2.75a1.54,1.54,0,0,0,1.55,1.54H24.66a.86.86,0,0,0,0-1.72H6.36V20.2H37.64v1.71H32.1a.86.86,0,1,0,0,1.72h5.71a1.54,1.54,0,0,0,1.55-1.54V19.34h0V6.3Zm-1.72,6.8a6.3,6.3,0,0,0-5.37,5.38H11.73A6.3,6.3,0,0,0,6.36,13.1v-6a6.32,6.32,0,0,0,5.37-5.38H32.27a6.3,6.3,0,0,0,5.37,5.37v6Zm0,1.74v3.64H34A4.59,4.59,0,0,1,37.64,14.84Zm-31.28,0A4.59,4.59,0,0,1,10,18.48H6.36ZM37.64,5.35A4.59,4.59,0,0,1,34,1.72h3.63ZM10,1.72A4.58,4.58,0,0,1,6.36,5.35V1.72Z"/><path class="cls-3" d="M28.44,21.91a.87.87,0,0,0-.61.26.86.86,0,1,0,1.22,0A.87.87,0,0,0,28.44,21.91Z"/></g></g></svg>